<?xml version="1.0" encoding="UTF-8" standalone="no"?><svg xmlns="http://www.w3.org/2000/svg" xmlns:xlink="http://www.w3.org/1999/xlink" data-name="Layer 2" fill="#ffffff" height="50.7" preserveAspectRatio="xMidYMid meet" version="1" viewBox="3.0 6.7 58.0 50.7" width="58" zoomAndPan="magnify"><g id="change1_1"><path d="M60,52.13H58.79V48.76a1,1,0,0,0-1-1H56.43V28.22a1,1,0,0,0,.8-.95V24.13h1.51a1,1,0,0,0,1-1V19.27a1,1,0,0,0-1-1H57.8l-4.16-4.9a.86.86,0,0,0-.45-.3L32.39,6.74a1,1,0,0,0-.56,0L10.48,13.37a.93.93,0,0,0-.48.32L6.4,18.3H5.48a1,1,0,0,0-1,1v3.89a1,1,0,0,0,1,1H7v3.14a1,1,0,0,0,.81.95V47.8H6.4a1,1,0,0,0-1,1v3.37H4a1,1,0,0,0-1,1v3.23a1,1,0,0,0,1,1H60a1,1,0,0,0,1-1V53.1A1,1,0,0,0,60,52.13ZM11.23,47.8H9.73V28.24h1.5Zm11,0h-1.4a1,1,0,0,0-1,1v3.37H15.53V48.76a1,1,0,0,0-1-1H13.17V28.22a1,1,0,0,0,.8-.95V24.13h7.44v3.14a1,1,0,0,0,.81.95Zm3.43,0h-1.5V28.24h1.5Zm11,0h-1.4a1,1,0,0,0-1,1v3.37H30V48.76a1,1,0,0,0-1-1H27.59V28.22a1,1,0,0,0,.8-.95V24.13h7.44v3.14a1,1,0,0,0,.81.95Zm3.43,0h-1.5V28.24h1.5Zm11,0h-1.4a1,1,0,0,0-1,1v3.37H44.37V48.76a1,1,0,0,0-1-1H42V28.22a1,1,0,0,0,.8-.95V24.13h7.44v3.14a1,1,0,0,0,.81.95Zm3.43,0H53V28.24h1.5ZM51.22,22.19H6.45v-2H57.78v2H51.22Z"/></g></svg>